<mxfile host="app.diagrams.net" modified="2024-05-17T07:10:37.122Z" agent="Mozilla/5.0 (Windows NT 10.0; Win64; x64) AppleWebKit/537.36 (KHTML, like Gecko) Chrome/120.0.0.0 YaBrowser/24.1.0.0 Safari/537.36" etag="79TKlUDDyTdIIU2BqgB4" version="24.4.3" type="device">
  <diagram name="Страница — 1" id="rOQdx9e3_G6UdSMBj3sd">
    <mxGraphModel dx="956" dy="546" grid="1" gridSize="10" guides="1" tooltips="1" connect="1" arrows="1" fold="1" page="1" pageScale="1" pageWidth="827" pageHeight="1169" math="0" shadow="0">
      <root>
        <mxCell id="0" />
        <mxCell id="1" parent="0" />
        <mxCell id="4dmDo5oHR6LKtuT2WtUI-8" value="" style="edgeStyle=orthogonalEdgeStyle;rounded=0;orthogonalLoop=1;jettySize=auto;html=1;" edge="1" parent="1" source="4dmDo5oHR6LKtuT2WtUI-1" target="4dmDo5oHR6LKtuT2WtUI-7">
          <mxGeometry relative="1" as="geometry" />
        </mxCell>
        <mxCell id="4dmDo5oHR6LKtuT2WtUI-20" value="1. Ввести номер на сайте" style="edgeLabel;html=1;align=center;verticalAlign=middle;resizable=0;points=[];" vertex="1" connectable="0" parent="4dmDo5oHR6LKtuT2WtUI-8">
          <mxGeometry x="0.2" relative="1" as="geometry">
            <mxPoint as="offset" />
          </mxGeometry>
        </mxCell>
        <mxCell id="4dmDo5oHR6LKtuT2WtUI-1" value="Клиент" style="shape=umlActor;verticalLabelPosition=bottom;verticalAlign=top;html=1;outlineConnect=0;" vertex="1" parent="1">
          <mxGeometry x="80" y="830" width="30" height="60" as="geometry" />
        </mxCell>
        <mxCell id="4dmDo5oHR6LKtuT2WtUI-2" value="Менеджер" style="shape=umlActor;verticalLabelPosition=bottom;verticalAlign=top;html=1;outlineConnect=0;" vertex="1" parent="1">
          <mxGeometry x="700" y="830" width="30" height="60" as="geometry" />
        </mxCell>
        <mxCell id="4dmDo5oHR6LKtuT2WtUI-3" value="Консультация&amp;nbsp; по телефону" style="rounded=0;whiteSpace=wrap;html=1;" vertex="1" parent="1">
          <mxGeometry x="354" y="760" width="120" height="60" as="geometry" />
        </mxCell>
        <mxCell id="4dmDo5oHR6LKtuT2WtUI-14" style="edgeStyle=orthogonalEdgeStyle;rounded=0;orthogonalLoop=1;jettySize=auto;html=1;entryX=1;entryY=0.5;entryDx=0;entryDy=0;" edge="1" parent="1" source="4dmDo5oHR6LKtuT2WtUI-4" target="4dmDo5oHR6LKtuT2WtUI-6">
          <mxGeometry relative="1" as="geometry">
            <Array as="points">
              <mxPoint x="600" y="450" />
            </Array>
          </mxGeometry>
        </mxCell>
        <mxCell id="4dmDo5oHR6LKtuT2WtUI-25" value="Линия связи" style="edgeLabel;html=1;align=center;verticalAlign=middle;resizable=0;points=[];" vertex="1" connectable="0" parent="4dmDo5oHR6LKtuT2WtUI-14">
          <mxGeometry x="0.3669" y="-3" relative="1" as="geometry">
            <mxPoint x="10" y="23" as="offset" />
          </mxGeometry>
        </mxCell>
        <mxCell id="4dmDo5oHR6LKtuT2WtUI-31" value="Text" style="edgeLabel;html=1;align=center;verticalAlign=middle;resizable=0;points=[];" vertex="1" connectable="0" parent="4dmDo5oHR6LKtuT2WtUI-14">
          <mxGeometry x="0.3613" y="-2" relative="1" as="geometry">
            <mxPoint as="offset" />
          </mxGeometry>
        </mxCell>
        <mxCell id="4dmDo5oHR6LKtuT2WtUI-33" value="3б Поднять трубку" style="edgeLabel;html=1;align=center;verticalAlign=middle;resizable=0;points=[];" vertex="1" connectable="0" parent="4dmDo5oHR6LKtuT2WtUI-14">
          <mxGeometry x="0.2124" y="-1" relative="1" as="geometry">
            <mxPoint as="offset" />
          </mxGeometry>
        </mxCell>
        <mxCell id="4dmDo5oHR6LKtuT2WtUI-4" value="Телефон" style="rounded=0;whiteSpace=wrap;html=1;" vertex="1" parent="1">
          <mxGeometry x="540" y="500" width="120" height="60" as="geometry" />
        </mxCell>
        <mxCell id="4dmDo5oHR6LKtuT2WtUI-15" style="edgeStyle=orthogonalEdgeStyle;rounded=0;orthogonalLoop=1;jettySize=auto;html=1;entryX=0;entryY=0.5;entryDx=0;entryDy=0;" edge="1" parent="1" source="4dmDo5oHR6LKtuT2WtUI-5" target="4dmDo5oHR6LKtuT2WtUI-10">
          <mxGeometry relative="1" as="geometry" />
        </mxCell>
        <mxCell id="4dmDo5oHR6LKtuT2WtUI-23" value="3а. Ожидание звонка менеджера" style="edgeLabel;html=1;align=center;verticalAlign=middle;resizable=0;points=[];" vertex="1" connectable="0" parent="4dmDo5oHR6LKtuT2WtUI-15">
          <mxGeometry x="-0.4211" y="2" relative="1" as="geometry">
            <mxPoint as="offset" />
          </mxGeometry>
        </mxCell>
        <mxCell id="4dmDo5oHR6LKtuT2WtUI-5" value="Ввод кода и ожидание звонка" style="rounded=0;whiteSpace=wrap;html=1;" vertex="1" parent="1">
          <mxGeometry x="35" y="630" width="120" height="60" as="geometry" />
        </mxCell>
        <mxCell id="4dmDo5oHR6LKtuT2WtUI-6" value="Коммутатор" style="rounded=0;whiteSpace=wrap;html=1;" vertex="1" parent="1">
          <mxGeometry x="354" y="420" width="120" height="60" as="geometry" />
        </mxCell>
        <mxCell id="4dmDo5oHR6LKtuT2WtUI-9" value="" style="edgeStyle=orthogonalEdgeStyle;rounded=0;orthogonalLoop=1;jettySize=auto;html=1;" edge="1" parent="1" source="4dmDo5oHR6LKtuT2WtUI-7" target="4dmDo5oHR6LKtuT2WtUI-5">
          <mxGeometry relative="1" as="geometry" />
        </mxCell>
        <mxCell id="4dmDo5oHR6LKtuT2WtUI-21" value="2. Ввести код из сообщения" style="edgeLabel;html=1;align=center;verticalAlign=middle;resizable=0;points=[];" vertex="1" connectable="0" parent="4dmDo5oHR6LKtuT2WtUI-9">
          <mxGeometry x="0.1" y="-1" relative="1" as="geometry">
            <mxPoint as="offset" />
          </mxGeometry>
        </mxCell>
        <mxCell id="4dmDo5oHR6LKtuT2WtUI-7" value="Ввод номера" style="rounded=0;whiteSpace=wrap;html=1;" vertex="1" parent="1">
          <mxGeometry x="35" y="730" width="120" height="60" as="geometry" />
        </mxCell>
        <mxCell id="4dmDo5oHR6LKtuT2WtUI-16" style="edgeStyle=orthogonalEdgeStyle;rounded=0;orthogonalLoop=1;jettySize=auto;html=1;entryX=0;entryY=0.5;entryDx=0;entryDy=0;" edge="1" parent="1" source="4dmDo5oHR6LKtuT2WtUI-10" target="4dmDo5oHR6LKtuT2WtUI-6">
          <mxGeometry relative="1" as="geometry">
            <Array as="points">
              <mxPoint x="210" y="450" />
            </Array>
          </mxGeometry>
        </mxCell>
        <mxCell id="4dmDo5oHR6LKtuT2WtUI-24" value="Линия связи" style="edgeLabel;html=1;align=center;verticalAlign=middle;resizable=0;points=[];" vertex="1" connectable="0" parent="4dmDo5oHR6LKtuT2WtUI-16">
          <mxGeometry x="-0.1046" y="1" relative="1" as="geometry">
            <mxPoint x="13" y="21" as="offset" />
          </mxGeometry>
        </mxCell>
        <mxCell id="4dmDo5oHR6LKtuT2WtUI-32" value="3б Поднять трубку" style="edgeLabel;html=1;align=center;verticalAlign=middle;resizable=0;points=[];" vertex="1" connectable="0" parent="4dmDo5oHR6LKtuT2WtUI-16">
          <mxGeometry x="0.1504" y="-3" relative="1" as="geometry">
            <mxPoint as="offset" />
          </mxGeometry>
        </mxCell>
        <mxCell id="4dmDo5oHR6LKtuT2WtUI-10" value="Телефон" style="rounded=0;whiteSpace=wrap;html=1;" vertex="1" parent="1">
          <mxGeometry x="150" y="500" width="120" height="60" as="geometry" />
        </mxCell>
        <mxCell id="4dmDo5oHR6LKtuT2WtUI-12" style="edgeStyle=orthogonalEdgeStyle;rounded=0;orthogonalLoop=1;jettySize=auto;html=1;entryX=1;entryY=0.5;entryDx=0;entryDy=0;" edge="1" parent="1" source="4dmDo5oHR6LKtuT2WtUI-11" target="4dmDo5oHR6LKtuT2WtUI-4">
          <mxGeometry relative="1" as="geometry" />
        </mxCell>
        <mxCell id="4dmDo5oHR6LKtuT2WtUI-28" value="5. Ввести номер телефона клиента" style="edgeLabel;html=1;align=center;verticalAlign=middle;resizable=0;points=[];" vertex="1" connectable="0" parent="4dmDo5oHR6LKtuT2WtUI-12">
          <mxGeometry x="-0.5988" y="-2" relative="1" as="geometry">
            <mxPoint as="offset" />
          </mxGeometry>
        </mxCell>
        <mxCell id="4dmDo5oHR6LKtuT2WtUI-11" value="Выбор клиента для&amp;nbsp; &amp;nbsp;созвания" style="rounded=0;whiteSpace=wrap;html=1;" vertex="1" parent="1">
          <mxGeometry x="655" y="700" width="120" height="60" as="geometry" />
        </mxCell>
        <mxCell id="4dmDo5oHR6LKtuT2WtUI-17" value="" style="endArrow=classic;html=1;rounded=0;entryX=1;entryY=0.5;entryDx=0;entryDy=0;" edge="1" parent="1" target="4dmDo5oHR6LKtuT2WtUI-3">
          <mxGeometry width="50" height="50" relative="1" as="geometry">
            <mxPoint x="700" y="840" as="sourcePoint" />
            <mxPoint x="750" y="790" as="targetPoint" />
          </mxGeometry>
        </mxCell>
        <mxCell id="4dmDo5oHR6LKtuT2WtUI-18" value="" style="endArrow=classic;html=1;rounded=0;entryX=0;entryY=0.5;entryDx=0;entryDy=0;" edge="1" parent="1" target="4dmDo5oHR6LKtuT2WtUI-3">
          <mxGeometry width="50" height="50" relative="1" as="geometry">
            <mxPoint x="120" y="850" as="sourcePoint" />
            <mxPoint x="170" y="800" as="targetPoint" />
          </mxGeometry>
        </mxCell>
        <mxCell id="4dmDo5oHR6LKtuT2WtUI-19" value="6. Начать разговор" style="text;html=1;align=center;verticalAlign=middle;whiteSpace=wrap;rounded=0;" vertex="1" parent="1">
          <mxGeometry x="230" y="820" width="60" height="30" as="geometry" />
        </mxCell>
        <mxCell id="4dmDo5oHR6LKtuT2WtUI-26" value="" style="endArrow=classic;html=1;rounded=0;entryX=0.5;entryY=1;entryDx=0;entryDy=0;" edge="1" parent="1" source="4dmDo5oHR6LKtuT2WtUI-2" target="4dmDo5oHR6LKtuT2WtUI-11">
          <mxGeometry width="50" height="50" relative="1" as="geometry">
            <mxPoint x="710" y="830" as="sourcePoint" />
            <mxPoint x="760" y="780" as="targetPoint" />
          </mxGeometry>
        </mxCell>
        <mxCell id="4dmDo5oHR6LKtuT2WtUI-27" value="4. Открыть БД" style="edgeLabel;html=1;align=center;verticalAlign=middle;resizable=0;points=[];" vertex="1" connectable="0" parent="4dmDo5oHR6LKtuT2WtUI-26">
          <mxGeometry x="0.102" y="1" relative="1" as="geometry">
            <mxPoint as="offset" />
          </mxGeometry>
        </mxCell>
        <mxCell id="4dmDo5oHR6LKtuT2WtUI-29" value="6. Начать разговор" style="text;html=1;align=center;verticalAlign=middle;whiteSpace=wrap;rounded=0;" vertex="1" parent="1">
          <mxGeometry x="570" y="830" width="60" height="30" as="geometry" />
        </mxCell>
        <mxCell id="4dmDo5oHR6LKtuT2WtUI-30" value="" style="endArrow=none;html=1;rounded=0;exitX=0.5;exitY=0;exitDx=0;exitDy=0;entryX=0.5;entryY=1;entryDx=0;entryDy=0;" edge="1" parent="1" source="4dmDo5oHR6LKtuT2WtUI-3" target="4dmDo5oHR6LKtuT2WtUI-6">
          <mxGeometry width="50" height="50" relative="1" as="geometry">
            <mxPoint x="370" y="530" as="sourcePoint" />
            <mxPoint x="420" y="480" as="targetPoint" />
          </mxGeometry>
        </mxCell>
      </root>
    </mxGraphModel>
  </diagram>
</mxfile>
